<svg xmlns="http://www.w3.org/2000/svg" width="214" height="63" viewBox="0 0 214 63">
    <g fill="none">
        <path fill="#FFF" d="M213.228 55.208c0 1.626-.646 3.185-1.796 4.334-1.15 1.15-2.711 1.794-4.337 1.792H6.366C2.98 61.338.23 58.595.225 55.208V6.358C.229 2.97 2.977.225 6.366.224h200.727c1.627 0 3.188.647 4.338 1.797s1.797 2.71 1.797 4.337v48.85z" transform="translate(0 .6)"/>
        <path fill="#000" d="M213.228 55.208c0 1.626-.646 3.185-1.796 4.334-1.15 1.15-2.711 1.794-4.337 1.792H6.366C2.98 61.338.23 58.595.225 55.208V6.358C.229 2.97 2.977.225 6.366.224h200.727c1.627 0 3.188.647 4.338 1.797s1.797 2.71 1.797 4.337v48.85z" transform="translate(0 .6)"/>
        <path fill="#FFF" d="M47 30.443c-.046-5.155 4.222-7.662 4.417-7.78-2.417-3.523-6.164-4.004-7.48-4.042-3.147-.332-6.2 1.882-7.803 1.882-1.635 0-4.103-1.85-6.764-1.796-3.423.053-6.626 2.034-8.383 5.112-3.625 6.274-.921 15.495 2.552 20.566 1.737 2.486 3.767 5.258 6.425 5.16 2.6-.106 3.57-1.655 6.708-1.655 3.108 0 4.02 1.655 6.73 1.593 2.79-.044 4.547-2.495 6.224-5.002 2.007-2.845 2.814-5.65 2.846-5.794-.064-.023-5.417-2.067-5.472-8.244zm-5.12-15.159c1.4-1.748 2.356-4.126 2.09-6.54-2.024.09-4.554 1.4-6.012 3.11-1.29 1.506-2.441 3.976-2.144 6.298 2.274.17 4.608-1.147 6.067-2.868zM84.655 49.188h-3.633l-1.99-6.252h-6.918l-1.895 6.252H66.68l6.856-21.285h4.233l6.885 21.285zm-6.223-8.875l-1.8-5.558c-.19-.567-.548-1.905-1.073-4.01h-.064c-.211.906-.549 2.243-1.011 4.01l-1.77 5.558h5.718zm23.818 1.013c0 2.61-.708 4.673-2.128 6.188-1.27 1.348-2.849 2.021-4.732 2.021-2.033 0-3.495-.724-4.383-2.176v8.053h-3.411V38.885c0-1.64-.043-3.32-.127-5.045h3l.19 2.433h.064c1.138-1.833 2.864-2.75 5.18-2.75 1.812 0 3.324.716 4.533 2.147 1.208 1.435 1.814 3.319 1.814 5.656zm-3.475.124c0-1.493-.336-2.725-1.01-3.696-.738-1.009-1.728-1.514-2.97-1.514-.841 0-1.606.281-2.29.836-.684.56-1.132 1.29-1.342 2.196-.093.339-.146.687-.158 1.038v2.56c0 1.115.342 2.057 1.027 2.828.685.768 1.574 1.154 2.669 1.154 1.284 0 2.284-.498 3-1.485.716-.99 1.074-2.295 1.074-3.917zm21.132-.124c0 2.61-.708 4.673-2.127 6.188-1.272 1.348-2.85 2.021-4.734 2.021-2.034 0-3.496-.724-4.384-2.176v8.053h-3.41V38.885c0-1.64-.044-3.32-.127-5.045h3l.19 2.433h.064c1.136-1.833 2.862-2.75 5.18-2.75 1.81 0 3.322.716 4.534 2.147 1.207 1.435 1.814 3.319 1.814 5.656zm-3.476.124c0-1.493-.337-2.725-1.013-3.696-.737-1.009-1.724-1.514-2.966-1.514-.841 0-1.606.281-2.292.836-.685.56-1.131 1.29-1.34 2.196-.105.422-.16.766-.16 1.038v2.56c0 1.115.343 2.057 1.025 2.828.684.767 1.574 1.154 2.671 1.154 1.287 0 2.286-.498 3-1.485.717-.99 1.075-2.295 1.075-3.917zm23.218 1.768c0 1.812-.633 3.285-1.892 4.422-1.386 1.241-3.32 1.863-5.8 1.863-2.29 0-4.127-.441-5.513-1.326l.79-2.842c1.495.886 3.138 1.328 4.927 1.328 1.286 0 2.286-.291 3-.869.714-.579 1.076-1.353 1.076-2.319 0-.865-.3-1.59-.886-2.18-.59-.588-1.567-1.137-2.938-1.64-3.727-1.39-5.593-3.423-5.593-6.098 0-1.746.66-3.176 1.975-4.294 1.315-1.116 3.058-1.675 5.228-1.675 1.937 0 3.551.338 4.833 1.011L138 31.38c-1.206-.653-2.568-.979-4.09-.979-1.204 0-2.148.296-2.823.885-.568.526-.856 1.167-.856 1.928 0 .84.328 1.538.98 2.085.567.503 1.6 1.052 3.095 1.64 1.833.74 3.18 1.6 4.043 2.588.868.989 1.3 2.222 1.3 3.692zm11.306-6.819h-3.76v7.452c0 1.895.663 2.84 1.99 2.84.61 0 1.116-.05 1.516-.158l.094 2.59c-.672.25-1.556.377-2.652.377-1.347 0-2.4-.41-3.16-1.233-.757-.822-1.137-2.2-1.137-4.138v-7.736h-2.24v-2.559h2.24v-2.81l3.35-1.01v3.82h3.76V36.4zm16.93 4.989c0 2.36-.675 4.296-2.023 5.81-1.409 1.56-3.284 2.337-5.621 2.337-2.256 0-4.05-.747-5.387-2.239-1.337-1.495-2.006-3.38-2.006-5.652 0-2.378.691-4.326 2.068-5.841 1.381-1.516 3.24-2.274 5.577-2.274 2.253 0 4.062.748 5.432 2.242 1.308 1.449 1.96 3.32 1.96 5.617zm-3.536.078c0-1.405-.304-2.611-.913-3.62-.716-1.22-1.74-1.829-3.066-1.829-1.366 0-2.414.61-3.127 1.828-.612 1.01-.916 2.236-.916 3.685 0 1.408.304 2.617.916 3.623.737 1.219 1.766 1.828 3.098 1.828 1.304 0 2.327-.622 3.066-1.858.627-1.034.942-2.248.942-3.657zm14.627-4.627c-.355-.064-.714-.095-1.075-.094-1.2 0-2.128.451-2.78 1.36-.567.8-.851 1.81-.851 3.03v8.053h-3.411V38.674c.003-1.611-.03-3.222-.1-4.832h2.971l.125 2.937h.095c.361-1.01.927-1.824 1.705-2.433.712-.533 1.576-.821 2.465-.822.315 0 .6.022.853.062l.003 3.253zm15.255 3.95c.008.518-.034 1.036-.125 1.546h-10.233c.039 1.516.535 2.677 1.485 3.477.862.713 1.977 1.072 3.347 1.072 1.515 0 2.897-.24 4.14-.725l.534 2.366c-1.452.633-3.167.948-5.146.948-2.38 0-4.25-.7-5.61-2.098-1.356-1.4-2.036-3.28-2.036-5.637 0-2.312.632-4.24 1.898-5.777 1.324-1.64 3.114-2.461 5.367-2.461 2.213 0 3.888.82 5.025 2.461.9 1.3 1.354 2.913 1.354 4.827zm-3.253-.885c.024-1.013-.2-1.884-.662-2.622-.59-.95-1.5-1.423-2.717-1.423-1.115 0-2.024.462-2.715 1.39-.568.737-.905 1.623-1.01 2.652l7.104.003zM71.13 20.378c-.948 0-1.769-.046-2.452-.124V9.963c.955-.148 1.92-.22 2.888-.218 3.911 0 5.713 1.925 5.713 5.061 0 3.618-2.128 5.572-6.149 5.572zm.573-9.313c-.528 0-.977.032-1.35.109v7.822c.202.032.589.047 1.133.047 2.563 0 4.022-1.459 4.022-4.19 0-2.437-1.32-3.788-3.805-3.788zm11.19 9.392c-2.205 0-3.634-1.646-3.634-3.88 0-2.33 1.46-3.99 3.758-3.99 2.173 0 3.633 1.568 3.633 3.866 0 2.358-1.505 4.004-3.758 4.004zm.063-6.644c-1.21 0-1.987 1.132-1.987 2.716 0 1.553.792 2.685 1.971 2.685 1.18 0 1.971-1.21 1.971-2.717 0-1.536-.776-2.684-1.955-2.684zm16.266-1.07l-2.36 7.543h-1.537l-.978-3.276c-.243-.801-.445-1.614-.606-2.436h-.032c-.123.822-.357 1.646-.605 2.436l-1.04 3.276h-1.553l-2.22-7.543h1.722l.854 3.586c.202.854.372 1.66.512 2.421h.032c.124-.635.325-1.428.621-2.405l1.072-3.6h1.366l1.026 3.523c.248.854.45 1.692.606 2.484h.045c.109-.776.28-1.6.512-2.484l.917-3.524 1.646-.001zm8.687 7.543h-1.677v-4.332c0-1.334-.512-2.002-1.521-2.002-.994 0-1.677.854-1.677 1.847v4.487h-1.676v-5.387c0-.667-.016-1.382-.063-2.158h1.475l.079 1.165h.046c.451-.807 1.366-1.318 2.392-1.318 1.584 0 2.623 1.21 2.623 3.18l-.001 4.518zm4.623 0h-1.678V9.282h1.678v11.004zm6.113.17c-2.203 0-3.633-1.645-3.633-3.88 0-2.328 1.46-3.988 3.756-3.988 2.175 0 3.634 1.567 3.634 3.865.001 2.358-1.506 4.004-3.757 4.004zm.063-6.643c-1.211 0-1.987 1.132-1.987 2.716 0 1.553.793 2.685 1.969 2.685 1.18 0 1.971-1.21 1.971-2.717.002-1.536-.773-2.684-1.953-2.684zm10.304 6.473l-.121-.869h-.045c-.512.699-1.26 1.04-2.206 1.04-1.352 0-2.312-.947-2.312-2.22 0-1.862 1.614-2.825 4.409-2.825v-.139c0-.993-.526-1.49-1.566-1.49-.744 0-1.397.186-1.971.56l-.341-1.103c.697-.435 1.568-.652 2.59-.652 1.971 0 2.966 1.04 2.966 3.12v2.778c0 .762.034 1.352.109 1.801l-1.512-.001zm-.23-3.757c-1.862 0-2.797.45-2.797 1.52 0 .792.482 1.18 1.15 1.18.853 0 1.647-.652 1.647-1.536v-1.164zm9.775 3.757l-.079-1.211h-.046c-.482.915-1.291 1.382-2.422 1.382-1.82 0-3.166-1.6-3.166-3.85 0-2.36 1.396-4.021 3.303-4.021 1.01 0 1.725.34 2.128 1.025h.034v-4.33h1.678v8.972c0 .729.017 1.412.062 2.033h-1.492zm-.248-4.439c0-1.055-.7-1.956-1.767-1.956-1.243 0-2.003 1.102-2.003 2.654 0 1.52.79 2.562 1.97 2.562 1.054 0 1.8-.917 1.8-2.003v-1.257zm12.318 4.61c-2.203 0-3.631-1.646-3.631-3.88 0-2.33 1.459-3.99 3.756-3.99 2.174 0 3.633 1.568 3.633 3.866.002 2.358-1.504 4.004-3.758 4.004zm.063-6.644c-1.21 0-1.986 1.132-1.986 2.716 0 1.553.792 2.685 1.97 2.685 1.18 0 1.97-1.21 1.97-2.717.004-1.536-.772-2.684-1.954-2.684zm12.712 6.473h-1.678v-4.332c0-1.334-.512-2.002-1.522-2.002-.993 0-1.675.854-1.675 1.847v4.487h-1.678v-5.387c0-.667-.016-1.382-.062-2.158h1.475l.078 1.165h.046c.45-.807 1.367-1.32 2.39-1.32 1.584 0 2.626 1.21 2.626 3.181v4.519zM174.682 14h-1.844v3.663c0 .932.323 1.397.976 1.397.296 0 .544-.032.743-.078l.047 1.273c-.325.125-.76.187-1.3.187-1.322 0-2.113-.73-2.113-2.639V14h-1.1v-1.257h1.1V11.36l1.647-.498v1.878h1.844V14zm8.876 6.286h-1.675v-4.3c0-1.35-.51-2.032-1.521-2.032-.869 0-1.679.59-1.679 1.784v4.548h-1.675V9.282h1.675v4.53h.034c.528-.821 1.293-1.226 2.269-1.226 1.596 0 2.572 1.241 2.572 3.213v4.487zm9.094-3.369h-5.032c.032 1.428.978 2.235 2.377 2.235.744 0 1.429-.125 2.034-.357l.26 1.164c-.713.31-1.553.466-2.53.466-2.36 0-3.757-1.491-3.757-3.802 0-2.313 1.43-4.051 3.568-4.051 1.928 0 3.137 1.428 3.137 3.585.01.255-.008.51-.057.76zm-1.538-1.195c0-1.164-.587-1.986-1.659-1.986-.963 0-1.725.838-1.833 1.986h3.492z" transform="translate(0 .6)"/>
    </g>
</svg>
