<svg xmlns="http://www.w3.org/2000/svg" xmlns:xlink="http://www.w3.org/1999/xlink" width="208" height="63" viewBox="0 0 208 63">
    <defs>
        <path id="prefix__b" d="M41.35 37.362l-6.32-6.36v-.445l6.32-6.359.137.084 7.477 4.276c2.14 1.213 2.14 3.216 0 4.444l-7.477 4.276-.137.084z"/>
        <path id="prefix__d" d="M41.487 37.278L35.03 30.78 15.96 49.966c.698.752 1.87.836 3.178.103l22.35-12.791"/>
        <path id="prefix__f" d="M41.487 24.282L19.137 11.51c-1.308-.752-2.483-.649-3.177.104L35.03 30.78l6.457-6.498z"/>
        <path id="prefix__g" d="M41.35 37.14L19.153 49.827c-1.24.717-2.346.667-3.06.015l-.118.119.119.103c.713.65 1.82.703 3.059-.015l22.35-12.772-.153-.139z"/>
        <path id="prefix__h" d="M48.964 32.78l-7.633 4.36.137.138 7.477-4.276c1.072-.614 1.598-1.42 1.598-2.222-.065.737-.61 1.435-1.58 2z"/>
        <path id="prefix__i" d="M19.138 11.732L48.964 28.78c.969.55 1.514 1.267 1.598 2 0-.802-.526-1.608-1.598-2.222L19.138 11.51c-2.14-1.232-3.876-.204-3.876 2.257v.222c0-2.464 1.736-3.473 3.876-2.257z"/>
        <linearGradient id="prefix__a" x1="107.63%" x2="-130.552%" y1="50%" y2="50%">
            <stop offset="0%" stop-color="#FFE000"/>
            <stop offset="40.87%" stop-color="#FFBD00"/>
            <stop offset="77.54%" stop-color="orange"/>
            <stop offset="100%" stop-color="#FF9C00"/>
        </linearGradient>
        <linearGradient id="prefix__c" x1="-18.811%" x2="42.085%" y1="-12.657%" y2="34.886%">
            <stop offset="0%" stop-color="#32A071"/>
            <stop offset="6.85%" stop-color="#2DA771"/>
            <stop offset="47.62%" stop-color="#15CF74"/>
            <stop offset="80.09%" stop-color="#06E775"/>
            <stop offset="100%" stop-color="#00F076"/>
        </linearGradient>
        <linearGradient id="prefix__e" x1="-18.811%" x2="42.085%" y1="-12.584%" y2="34.904%">
            <stop offset="0%" stop-color="#32A071"/>
            <stop offset="6.85%" stop-color="#2DA771"/>
            <stop offset="47.62%" stop-color="#15CF74"/>
            <stop offset="80.09%" stop-color="#06E775"/>
            <stop offset="100%" stop-color="#00F076"/>
        </linearGradient>
    </defs>
    <g fill="none" fill-rule="evenodd" transform="translate(0 .6)">
        <path fill="#000" fill-rule="nonzero" d="M199.67 61.56H7.683C3.448 61.56 0 58.09 0 53.865V7.695C0 3.455 3.448 0 7.683 0H199.67c4.23 0 7.682 3.454 7.682 7.695v46.17c0 4.226-3.452 7.695-7.682 7.695z"/>
        <path fill="#FFF" fill-rule="nonzero" d="M109.234 20.364c-1.385 0-2.552-.487-3.475-1.447-.916-.933-1.427-2.218-1.404-3.53 0-1.402.473-2.588 1.404-3.528.92-.96 2.087-1.447 3.471-1.447 1.37 0 2.537.488 3.475 1.447.931.971 1.404 2.157 1.404 3.527-.015 1.405-.488 2.59-1.404 3.527-.919.967-2.086 1.45-3.471 1.45zm-41.201 0c-1.354 0-2.53-.48-3.49-1.428-.954-.944-1.439-2.137-1.439-3.546 0-1.409.485-2.602 1.439-3.546.942-.948 2.117-1.428 3.49-1.428.671 0 1.324.134 1.95.407.613.265 1.113.625 1.483 1.067l.092.111-1.034 1.021-.107-.127c-.584-.698-1.366-1.04-2.4-1.04-.923 0-1.727.33-2.391.983-.668.656-1.007 1.516-1.007 2.556s.34 1.9 1.007 2.556c.664.652 1.468.982 2.392.982.984 0 1.812-.33 2.456-.982.382-.384.618-.921.702-1.6h-3.315v-1.436H72.6l.019.13c.034.242.069.492.069.722 0 1.324-.397 2.395-1.183 3.186-.893.936-2.06 1.412-3.471 1.412zm54.78-.203h-1.46l-4.475-7.204.039 1.297v5.903h-1.461v-9.538h1.667l.045.073 4.208 6.786-.038-1.294V10.62h1.476v9.542zm-24.557 0h-1.48v-8.106h-2.568v-1.436h6.611v1.436h-2.567v8.106h.004zm-5.253 0h-1.476v-9.542h1.476v9.542zm-8.297 0H83.23v-8.106h-2.567v-1.436h6.61v1.436h-2.567v8.106zm-4.978-.016h-5.66V10.62h5.66v1.436h-4.18v2.617h3.772v1.42h-3.772v2.618h4.18v1.435zm27.114-2.214c.66.664 1.461.998 2.392.998.957 0 1.74-.327 2.392-.998.648-.653.976-1.509.976-2.541s-.328-1.892-.972-2.54c-.66-.665-1.465-.999-2.392-.999-.958 0-1.74.327-2.388.998-.649.653-.977 1.509-.977 2.541s.325 1.892.97 2.54z"/>
        <path fill="#FFF" d="M104.218 33.482c-3.605 0-6.527 2.752-6.527 6.547 0 3.761 2.941 6.548 6.527 6.548 3.605 0 6.527-2.771 6.527-6.548 0-3.795-2.922-6.547-6.527-6.547zm0 10.5c-1.972 0-3.67-1.642-3.67-3.968 0-2.36 1.702-3.968 3.67-3.968 1.972 0 3.67 1.608 3.67 3.968.003 2.341-1.698 3.968-3.67 3.968zm-14.24-10.5c-3.605 0-6.527 2.752-6.527 6.547 0 3.761 2.941 6.548 6.527 6.548 3.605 0 6.527-2.771 6.527-6.548 0-3.795-2.926-6.547-6.527-6.547zm0 10.5c-1.972 0-3.67-1.642-3.67-3.968 0-2.36 1.702-3.968 3.67-3.968 1.972 0 3.67 1.608 3.67 3.968 0 2.341-1.698 3.968-3.67 3.968zm-16.944-8.5v2.77h6.61c-.202 1.555-.713 2.702-1.495 3.49-.969.974-2.464 2.033-5.1 2.033-4.063 0-7.24-3.3-7.24-7.388 0-4.087 3.177-7.388 7.24-7.388 2.193 0 3.792.871 4.978 1.984l1.953-1.965c-1.648-1.588-3.841-2.805-6.916-2.805-5.573 0-10.25 4.567-10.25 10.159 0 5.607 4.673 10.159 10.25 10.159 3.01 0 5.268-.99 7.053-2.856 1.82-1.83 2.396-4.413 2.396-6.497 0-.649-.05-1.232-.153-1.727h-9.33c.004-.004.004.03.004.03zm69.307 2.156c-.546-1.47-2.194-4.171-5.573-4.171-3.35 0-6.134 2.652-6.134 6.547 0 3.677 2.754 6.547 6.458 6.547 2.975 0 4.707-1.83 5.42-2.905l-2.208-1.489c-.733 1.094-1.751 1.812-3.197 1.812-1.46 0-2.483-.668-3.162-1.985l8.7-3.626c0 .003-.304-.73-.304-.73zm-8.873 2.188c-.069-2.53 1.953-3.815 3.399-3.815 1.14 0 2.09.564 2.414 1.386l-5.813 2.429zM126.4 46.17h2.857V26.934H126.4V46.17zm-4.692-11.234h-.103c-.645-.771-1.87-1.47-3.433-1.47-3.247 0-6.237 2.875-6.237 6.567 0 3.677 2.975 6.517 6.237 6.517 1.544 0 2.788-.702 3.433-1.49h.103v.941c0 2.499-1.328 3.846-3.468 3.846-1.75 0-2.838-1.267-3.28-2.326l-2.484 1.044c.714 1.727 2.617 3.865 5.76 3.865 3.35 0 6.188-1.985 6.188-6.824V33.858h-2.701v1.078h-.015zm-3.28 9.046c-1.973 0-3.62-1.658-3.62-3.949 0-2.31 1.647-3.984 3.62-3.984 1.952 0 3.467 1.693 3.467 3.984.019 2.291-1.511 3.95-3.468 3.95zm37.29-17.048h-6.832V46.17h2.858v-7.284h3.978c3.162 0 6.271-2.307 6.271-5.968 0-3.662-3.097-5.984-6.275-5.984zm.084 9.265h-4.062v-6.601h4.062c2.14 0 3.35 1.777 3.35 3.3 0 1.509-1.225 3.301-3.35 3.301zm17.643-2.752c-2.075 0-4.215.925-5.1 2.94l2.532 1.06c.546-1.06 1.545-1.42 2.602-1.42 1.48 0 2.975.89 3.01 2.479v.203c-.511-.292-1.633-.737-2.976-.737-2.735 0-5.508 1.505-5.508 4.326 0 2.582 2.243 4.24 4.742 4.24 1.918 0 2.975-.87 3.635-1.88h.103v1.489h2.754v-7.369c0-3.43-2.533-5.33-5.794-5.33zm-.359 10.535c-.934 0-2.243-.46-2.243-1.642 0-1.49 1.633-2.054 3.025-2.054 1.259 0 1.854.273 2.602.65-.206 1.726-1.656 3.031-3.384 3.046zm16.2-10.124l-3.28 8.344h-.103l-3.399-8.344h-3.074l5.1 11.663-2.907 6.483h2.975l7.847-18.146h-3.158zM163.57 46.17h2.857V26.934h-2.857V46.17zM15.96 11.594c-.442.48-.698 1.213-.698 2.173v34.03c0 .96.256 1.693.713 2.153l.119.104 18.95-19.067v-.426l-18.966-19.07-.118.103z"/>
        <use fill="url(#prefix__a)" xlink:href="#prefix__b"/>
        <use fill="#FFF" xlink:href="#prefix__b"/>
        <use fill="url(#prefix__c)" xlink:href="#prefix__d"/>
        <use fill="#FFF" stroke="#000" stroke-width="1.5" xlink:href="#prefix__d"/>
        <use fill="url(#prefix__e)" xlink:href="#prefix__f"/>
        <use fill="#FFF" stroke="#000" stroke-width="1.5" xlink:href="#prefix__f"/>
        <g fill="#FFF" fill-rule="nonzero">
            <use xlink:href="#prefix__g"/>
            <use xlink:href="#prefix__g"/>
        </g>
        <g fill="#FFF" fill-rule="nonzero" opacity=".12">
            <use xlink:href="#prefix__h"/>
            <use xlink:href="#prefix__h"/>
        </g>
        <g fill="#FFF">
            <use xlink:href="#prefix__i"/>
            <use xlink:href="#prefix__i"/>
        </g>
    </g>
</svg>
