<svg xmlns="http://www.w3.org/2000/svg" width="91" height="90" viewBox="0 0 91 90">
    <g fill="none" fill-rule="evenodd">
        <path fill="#44D7B6" d="M29.485 0h31.03c10.253 0 13.97 1.067 17.719 3.072 3.748 2.005 6.69 4.946 8.694 8.694C88.933 15.514 90 19.232 90 29.485v31.03c0 10.253-1.067 13.97-3.072 17.719-2.005 3.748-4.946 6.69-8.694 8.694C74.486 88.933 70.768 90 60.515 90h-31.03c-10.253 0-13.97-1.067-17.719-3.072-3.748-2.005-6.69-4.946-8.694-8.694C1.067 74.486 0 70.768 0 60.515v-31.03c0-10.253 1.067-13.97 3.072-17.719 2.005-3.748 4.946-6.69 8.694-8.694C15.514 1.067 19.232 0 29.485 0z" transform="translate(.5)"/>
        <g fill="#FFF" fill-rule="nonzero">
            <path d="M30.717 27.836c3.146-1.327 5.63-3.132 7.45-5.418 1.82-2.284 2.73-4.773 2.73-7.464 0-2.692-.91-5.18-2.73-7.465-1.82-2.285-4.304-4.09-7.45-5.418C27.57.745 24.147.081 20.449.081c-3.699 0-7.122.664-10.268 1.99C7.034 3.398 4.55 5.204 2.73 7.49.91 9.774 0 12.262 0 14.954c0 2.304.688 4.474 2.063 6.507 1.375 2.033 3.263 3.747 5.664 5.14-.193.466-.392.891-.595 1.28-.204.387-.446.759-.727 1.117-.28.36-.498.64-.653.842-.155.204-.407.49-.755.857-.35.368-.572.61-.669.726 0-.02-.038.025-.116.131-.078.107-.121.155-.13.146-.01-.01-.05.038-.117.144l-.102.16-.072.145c-.03.058-.049.115-.058.174-.01.058-.015.12-.015.188s.01.13.03.19c.038.25.15.453.333.61.184.154.382.231.596.231h.087c.968-.136 1.8-.29 2.498-.465 2.982-.774 5.674-2.014 8.075-3.718 1.742.31 3.446.465 5.112.465 3.699.001 7.122-.662 10.268-1.988z" transform="translate(.5) translate(19 25)"/>
            <path d="M49.989 28.91c1.375-2.023 2.062-4.196 2.062-6.52 0-2.382-.727-4.61-2.179-6.682s-3.427-3.796-5.925-5.17c.445 1.452.668 2.923.668 4.415 0 2.594-.648 5.054-1.947 7.378-1.297 2.323-3.156 4.375-5.576 6.157-2.247 1.627-4.803 2.875-7.67 3.747-2.864.871-5.856 1.307-8.974 1.307-.58 0-1.433-.038-2.556-.116 3.892 2.556 8.462 3.834 13.71 3.834 1.665 0 3.37-.155 5.112-.465 2.401 1.705 5.093 2.944 8.075 3.719.697.175 1.53.33 2.498.465.232.019.446-.049.64-.204.193-.155.319-.367.377-.638-.01-.116 0-.18.029-.19.028-.008.024-.072-.015-.188l-.058-.174-.072-.145c-.02-.038-.053-.092-.102-.16-.048-.067-.087-.116-.116-.145-.028-.029-.072-.077-.13-.145-.058-.067-.097-.11-.116-.13-.097-.116-.32-.358-.668-.726-.35-.368-.6-.653-.755-.857-.155-.203-.373-.484-.654-.842-.28-.358-.523-.731-.726-1.119-.203-.387-.402-.813-.596-1.277 2.402-1.396 4.29-3.105 5.664-5.129z" transform="translate(.5) translate(19 25)"/>
        </g>
    </g>
</svg>
