<svg xmlns="http://www.w3.org/2000/svg" width="90" height="90" viewBox="0 0 90 90">
    <g fill="none" fill-rule="evenodd">
        <path fill="#1EB6F9" d="M29.485 0h31.03c10.253 0 13.97 1.067 17.719 3.072 3.748 2.005 6.69 4.946 8.694 8.694C88.933 15.514 90 19.232 90 29.485v31.03c0 10.253-1.067 13.97-3.072 17.719-2.005 3.748-4.946 6.69-8.694 8.694C74.486 88.933 70.768 90 60.515 90h-31.03c-10.253 0-13.97-1.067-17.719-3.072-3.748-2.005-6.69-4.946-8.694-8.694C1.067 74.486 0 70.768 0 60.515v-31.03c0-10.253 1.067-13.97 3.072-17.719 2.005-3.748 4.946-6.69 8.694-8.694C15.514 1.067 19.232 0 29.485 0z"/>
        <path fill="#FFF" fill-rule="nonzero" d="M37.462 53l-.863 12.284c1.235 0 1.77-.537 2.41-1.181l5.786-5.6 11.99 8.89c2.199 1.242 3.748.588 4.341-2.047l7.87-37.339.003-.002c.697-3.291-1.176-4.578-3.318-3.77L19.42 42.165c-3.157 1.241-3.11 3.023-.537 3.83l11.827 3.725 27.471-17.404c1.293-.867 2.469-.387 1.502.48L37.462 52.999z"/>
    </g>
</svg>
