<svg xmlns="http://www.w3.org/2000/svg" width="90" height="90" viewBox="0 0 90 90">
    <g fill="none" fill-rule="evenodd">
        <path fill="#00E676" d="M29.485 0h31.03c10.253 0 13.97 1.067 17.719 3.072 3.748 2.005 6.69 4.946 8.694 8.694C88.933 15.514 90 19.232 90 29.485v31.03c0 10.253-1.067 13.97-3.072 17.719-2.005 3.748-4.946 6.69-8.694 8.694C74.486 88.933 70.768 90 60.515 90h-31.03c-10.253 0-13.97-1.067-17.719-3.072-3.748-2.005-6.69-4.946-8.694-8.694C1.067 74.486 0 70.768 0 60.515v-31.03c0-10.253 1.067-13.97 3.072-17.719 2.005-3.748 4.946-6.69 8.694-8.694C15.514 1.067 19.232 0 29.485 0z"/>
        <path fill="#FFF" fill-rule="nonzero" d="M46.007 17h-.013C31.658 17 20 28.661 20 43c0 5.688 1.833 10.959 4.95 15.24l-3.24 9.658 9.993-3.195C35.815 67.427 40.72 69 46.007 69 60.342 69 72 57.336 72 43S60.342 17 46.006 17zm15.128 36.715c-.627 1.771-3.116 3.24-5.102 3.67-1.359.289-3.133.52-9.107-1.957-7.64-3.165-12.561-10.93-12.945-11.433-.367-.504-3.087-4.112-3.087-7.843 0-3.73 1.895-5.547 2.659-6.327.627-.64 1.663-.933 2.658-.933.322 0 .611.016.871.029.764.033 1.147.078 1.651 1.284.627 1.511 2.155 5.242 2.337 5.626.185.383.37.903.11 1.407-.244.52-.458.75-.842 1.192-.383.442-.747.78-1.13 1.255-.352.413-.748.855-.306 1.618.442.748 1.97 3.24 4.218 5.243 2.903 2.583 5.256 3.409 6.097 3.76.628.26 1.375.198 1.833-.29.582-.627 1.3-1.666 2.032-2.69.52-.735 1.176-.826 1.865-.566.702.244 4.417 2.08 5.18 2.46.764.384 1.268.566 1.453.888.182.322.182 1.833-.445 3.607z"/>
    </g>
</svg>
