<svg xmlns="http://www.w3.org/2000/svg" width="90" height="90" viewBox="0 0 90 90">
    <g fill="none" fill-rule="evenodd">
        <path fill="#FFF" stroke="#D9D9D9" d="M77.998 3.513C74.3 1.535 70.626.5 60.515.5L28.96.501C19.245.537 15.635 1.57 12.002 3.513c-3.66 1.957-6.532 4.83-8.49 8.49C1.536 15.7.5 19.372.5 29.484L.501 61.04c.036 9.715 1.069 13.325 3.012 16.958 1.957 3.66 4.83 6.532 8.49 8.49 3.697 1.977 7.37 3.012 17.482 3.012h31.03c10.111 0 13.785-1.035 17.483-3.013 3.66-1.957 6.532-4.83 8.49-8.49 1.977-3.697 3.012-7.37 3.012-17.482v-31.03c0-10.111-1.035-13.785-3.013-17.483-1.957-3.66-4.83-6.532-8.49-8.49z"/>
        <g fill-rule="nonzero" transform="translate(23 23)">
            <circle cx="32.605" cy="32.605" r="12.079" fill="#97CF26"/>
            <circle cx="9.921" cy="32.605" r="5.605" fill="#A169F7"/>
            <circle cx="32.605" cy="9.921" r="7.763" fill="#FF6163"/>
            <circle cx="9.921" cy="9.921" r="9.921" fill="#0AF"/>
        </g>
    </g>
</svg>
