<svg xmlns="http://www.w3.org/2000/svg" width="54" height="52" viewBox="0 0 54 52">
    <g fill="#FFF">
        <path d="M47.954 41.887l-5.422-3.614-4.82-3.213c-.93-.619-2.18-.416-2.866.466l-2.982 3.834c-.641.831-1.793 1.07-2.712.562-2.024-1.126-4.417-2.186-9.697-7.472-5.28-5.287-6.346-7.673-7.472-9.697-.508-.919-.27-2.071.563-2.712l3.833-2.982c.882-.686 1.085-1.936.466-2.867l-3.114-4.67-3.713-5.571c-.632-.948-1.898-1.233-2.875-.647l-4.282 2.57C1.703 6.554.853 7.655.485 8.947c-1.171 4.27-1.408 13.69 13.688 28.785C29.268 52.828 38.687 52.592 42.956 51.42c1.293-.368 2.394-1.218 3.076-2.376l2.569-4.282c.586-.977.301-2.243-.647-2.875zM30.13 22.94c.175.419.508.755.93.93.209.085.431.13.654.13H42c.946 0 1.714-.768 1.714-1.714 0-.947-.768-1.715-1.714-1.715h-6.147L53.499 2.928c.669-.672.669-1.755 0-2.427C53.163.168 52.725 0 52.286 0c-.44 0-.878.168-1.214.5L33.429 18.148V12c0-.946-.768-1.714-1.715-1.714-.946 0-1.714.768-1.714 1.714v10.286c0 .223.045.445.13.655z"/>
    </g>
</svg>
