<svg xmlns="http://www.w3.org/2000/svg" width="90" height="90" viewBox="0 0 90 90">
    <g fill="none" fill-rule="evenodd">
        <path fill="#FFF" stroke="#D9D9D9" d="M77.998 3.513C74.3 1.535 70.626.5 60.515.5L28.96.501C19.245.537 15.635 1.57 12.002 3.513c-3.66 1.957-6.532 4.83-8.49 8.49C1.536 15.7.5 19.372.5 29.484L.501 61.04c.036 9.715 1.069 13.325 3.012 16.958 1.957 3.66 4.83 6.532 8.49 8.49 3.697 1.977 7.37 3.012 17.482 3.012h31.03c10.111 0 13.785-1.035 17.483-3.013 3.66-1.957 6.532-4.83 8.49-8.49 1.977-3.697 3.012-7.37 3.012-17.482v-31.03c0-10.111-1.035-13.785-3.013-17.483-1.957-3.66-4.83-6.532-8.49-8.49z"/>
        <path fill="#565656" fill-rule="nonzero" d="M65.733 56.744c-.765 1.782-1.67 3.422-2.72 4.93-1.431 2.056-2.602 3.479-3.505 4.27-1.4 1.296-2.899 1.96-4.505 1.998-1.152 0-2.542-.33-4.16-1.001-1.624-.667-3.116-.998-4.48-.998-1.43 0-2.965.33-4.606.998-1.644.67-2.968 1.02-3.98 1.055-1.54.066-3.075-.617-4.607-2.053-.978-.86-2.2-2.333-3.666-4.42-1.571-2.229-2.864-4.813-3.876-7.76C24.544 50.581 24 47.5 24 44.515c0-3.418.733-6.366 2.2-8.836 1.154-1.984 2.689-3.55 4.61-4.698 1.92-1.15 3.996-1.735 6.231-1.773 1.223 0 2.827.382 4.82 1.13 1.987.753 3.263 1.134 3.823 1.134.418 0 1.835-.446 4.239-1.335 2.272-.824 4.19-1.165 5.761-1.03 4.258.346 7.457 2.037 9.584 5.085-3.808 2.325-5.691 5.581-5.654 9.76.034 3.253 1.206 5.961 3.508 8.111 1.043.998 2.209 1.77 3.505 2.317-.281.822-.578 1.609-.894 2.364zM55.97 18.02c0 2.55-.925 4.932-2.768 7.137-2.224 2.62-4.914 4.134-7.832 3.895-.037-.306-.058-.628-.058-.966 0-2.449 1.057-5.07 2.936-7.212.937-1.085 2.13-1.987 3.576-2.706 1.444-.709 2.809-1.1 4.092-1.168.038.341.054.682.054 1.02z"/>
    </g>
</svg>
