<svg xmlns="http://www.w3.org/2000/svg" width="90" height="90" viewBox="0 0 90 90">
    <g fill="none" fill-rule="evenodd">
        <path fill="#7566EB" d="M29.485 0h31.03c10.253 0 13.97 1.067 17.719 3.072 3.748 2.005 6.69 4.946 8.694 8.694C88.933 15.514 90 19.232 90 29.485v31.03c0 10.253-1.067 13.97-3.072 17.719-2.005 3.748-4.946 6.69-8.694 8.694C74.486 88.933 70.768 90 60.515 90h-31.03c-10.253 0-13.97-1.067-17.719-3.072-3.748-2.005-6.69-4.946-8.694-8.694C1.067 74.486 0 70.768 0 60.515v-31.03c0-10.253 1.067-13.97 3.072-17.719 2.005-3.748 4.946-6.69 8.694-8.694C15.514 1.067 19.232 0 29.485 0z"/>
        <g fill="#FFF" fill-rule="nonzero">
            <path d="M52.784 34.363c1.733-14.588-.833-23.798-5.461-27.964l.002-.003c-7.47-7.114-32.696-8.166-41.632.32C1.679 10.867.266 16.959.11 24.502c-.155 7.545-.339 21.678 12.831 25.512h.012l-.012 5.855s-.09 2.372 1.426 2.85c1.733.56 2.517-.54 7.907-6.98 9.014.783 15.937-1.009 16.724-1.27 1.82-.61 12.12-1.973 13.785-16.106zM23.164 47.62s-5.705 7.114-7.48 8.96c-.58.601-1.217.545-1.207-.645 0-.782.043-9.721.043-9.721-11.166-3.2-10.507-15.235-10.386-21.53.12-6.299 1.273-11.457 4.671-14.93 7.84-7.351 29.957-5.708 35.592-.412 6.888 6.107 4.436 23.36 4.45 23.949-1.415 11.797-9.761 12.545-11.296 13.056-.656.218-6.743 1.784-14.387 1.273z" transform="translate(19 15)"/>
            <path d="M26.32 11.136c-.932 0-.932 1.452 0 1.464 7.23.056 13.185 5.095 13.25 14.34 0 .975 1.428.963 1.416-.013h-.002c-.078-9.96-6.58-15.736-14.664-15.791z" transform="translate(19 15)"/>
            <path d="M35.83 25.407c-.021.963 1.404 1.01 1.416.034.119-5.492-3.267-10.016-9.63-10.493-.933-.068-1.03 1.397-.1 1.464 5.519.42 8.426 4.186 8.314 8.995zM34.305 31.654c-1.195-.692-2.413-.261-2.916.42l-1.053 1.362c-.535.692-1.535.6-1.535.6-7.295-1.929-9.246-9.563-9.246-9.563s-.09-1.034.578-1.588l1.317-1.09c.658-.522 1.075-1.78.404-3.018-1.79-3.236-2.994-4.352-3.606-5.209-.644-.806-1.612-.987-2.62-.443h-.021c-2.094 1.225-4.386 3.517-3.653 5.877 1.252 2.489 3.551 10.42 10.88 16.414 3.445 2.834 8.896 5.739 11.21 6.41l.022.033c2.28.76 4.497-1.621 5.68-3.778v-.017c.526-1.043.352-2.03-.416-2.677-1.36-1.327-3.413-2.791-5.025-3.733z" transform="translate(19 15)"/>
            <path d="M28.612 20.35c2.326.136 3.454 1.351 3.575 3.847.044.975 1.46.908 1.416-.068-.154-3.258-1.854-5.073-4.913-5.243-.932-.055-1.02 1.409-.078 1.465z" transform="translate(19 15)"/>
        </g>
    </g>
</svg>
