<svg xmlns="http://www.w3.org/2000/svg" width="90" height="90" viewBox="0 0 90 90">
    <g fill="none" fill-rule="evenodd">
        <path fill="#5093DA" d="M29.485 0h31.03c10.253 0 13.97 1.067 17.719 3.072 3.748 2.005 6.69 4.946 8.694 8.694C88.933 15.514 90 19.232 90 29.485v31.03c0 10.253-1.067 13.97-3.072 17.719-2.005 3.748-4.946 6.69-8.694 8.694C74.486 88.933 70.768 90 60.515 90h-31.03c-10.253 0-13.97-1.067-17.719-3.072-3.748-2.005-6.69-4.946-8.694-8.694C1.067 74.486 0 70.768 0 60.515v-31.03c0-10.253 1.067-13.97 3.072-17.719 2.005-3.748 4.946-6.69 8.694-8.694C15.514 1.067 19.232 0 29.485 0z"/>
        <path fill="#FFF" fill-rule="nonzero" d="M70.677 59.267c-.148-.25-1.066-2.256-5.48-6.38-4.62-4.32-4-3.618 1.566-11.086 3.39-4.548 4.745-7.325 4.32-8.513-.403-1.132-2.896-.833-2.896-.833l-8.29.049s-.613-.084-1.072.19c-.445.271-.731.896-.731.896s-1.314 3.52-3.066 6.513c-3.693 6.315-5.172 6.649-5.775 6.256-1.404-.913-1.052-3.673-1.052-5.63 0-6.122.92-8.673-1.797-9.333-.903-.219-1.565-.364-3.872-.389-2.959-.031-5.466.01-6.883.708-.945.466-1.672 1.504-1.227 1.563.548.073 1.79.337 2.448 1.24.852 1.162.82 3.78.82 3.78s.49 7.204-1.14 8.1c-1.122.614-2.656-.64-5.95-6.371-1.685-2.934-2.961-6.18-2.961-6.18s-.245-.604-.683-.927c-.531-.392-1.276-.517-1.276-.517l-7.883.048s-1.182.035-1.617.552c-.386.462-.031 1.413-.031 1.413s6.172 14.537 13.159 21.866c6.41 6.717 13.686 6.276 13.686 6.276h3.297s.996-.11 1.503-.663c.469-.507.452-1.458.452-1.458s-.066-4.454 1.99-5.11c2.024-.646 4.624 4.305 7.379 6.21 2.082 1.442 3.665 1.126 3.665 1.126l7.37-.105s3.854-.24 2.027-3.29z"/>
    </g>
</svg>
