<svg xmlns="http://www.w3.org/2000/svg" width="90" height="90" viewBox="0 0 90 90">
    <g fill="none" fill-rule="evenodd">
        <path fill="#6DD402" d="M29.485 0h31.03c10.253 0 13.97 1.067 17.719 3.072 3.748 2.005 6.69 4.946 8.694 8.694C88.933 15.514 90 19.232 90 29.485v31.03c0 10.253-1.067 13.97-3.072 17.719-2.005 3.748-4.946 6.69-8.694 8.694C74.486 88.933 70.768 90 60.515 90h-31.03c-10.253 0-13.97-1.067-17.719-3.072-3.748-2.005-6.69-4.946-8.694-8.694C1.067 74.486 0 70.768 0 60.515v-31.03c0-10.253 1.067-13.97 3.072-17.719 2.005-3.748 4.946-6.69 8.694-8.694C15.514 1.067 19.232 0 29.485 0z"/>
        <path fill="#FFF" d="M23.985 49.768c.458 1.258 1.027 2.443 1.692 3.55l-.03.009s11.19 20.186 39.412 7.941c0 0-2.174-2.538-6.383-5.094 4.744-5.43 6.47-13.193 3.837-20.429-3.858-10.599-15.61-16.052-26.25-12.18-10.638 3.872-16.136 15.604-12.278 26.203z"/>
    </g>
</svg>
