<svg xmlns="http://www.w3.org/2000/svg" width="91" height="90" viewBox="0 0 91 90">
    <g fill="none" fill-rule="evenodd">
        <path fill="#5C75E2" d="M29.485 0h31.03c10.253 0 13.97 1.067 17.719 3.072 3.748 2.005 6.69 4.946 8.694 8.694C88.933 15.514 90 19.232 90 29.485v31.03c0 10.253-1.067 13.97-3.072 17.719-2.005 3.748-4.946 6.69-8.694 8.694C74.486 88.933 70.768 90 60.515 90h-31.03c-10.253 0-13.97-1.067-17.719-3.072-3.748-2.005-6.69-4.946-8.694-8.694C1.067 74.486 0 70.768 0 60.515v-31.03c0-10.253 1.067-13.97 3.072-17.719 2.005-3.748 4.946-6.69 8.694-8.694C15.514 1.067 19.232 0 29.485 0z" transform="translate(.5)"/>
        <g fill="#FFF" fill-rule="nonzero">
            <path d="M47.954 38.887l-5.422-3.614-4.82-3.213c-.93-.619-2.18-.416-2.866.466l-2.982 3.834c-.641.831-1.793 1.07-2.712.562-2.024-1.126-4.417-2.186-9.697-7.472-5.28-5.287-6.346-7.673-7.472-9.697-.508-.919-.27-2.071.563-2.712l3.833-2.982c.882-.686 1.085-1.936.466-2.867l-3.114-4.67L10.018.95C9.386.003 8.12-.282 7.143.304l-4.282 2.57C1.703 3.554.853 4.655.485 5.947c-1.171 4.27-1.408 13.69 13.688 28.785C29.268 49.828 38.687 49.592 42.956 48.42c1.293-.368 2.394-1.218 3.076-2.376l2.569-4.282c.586-.977.301-2.243-.647-2.875zM27.825 7.589c7.913.008 14.325 6.42 14.334 14.334 0 .465.377.843.843.843.466 0 .843-.378.843-.843-.01-8.844-7.176-16.011-16.02-16.02-.466 0-.843.377-.843.842 0 .466.377.844.843.844z" transform="translate(.5) translate(21 21)"/>
            <path d="M27.825 12.648c5.12.006 9.269 4.155 9.275 9.274 0 .466.377.844.843.844.466 0 .843-.378.843-.844-.007-6.05-4.91-10.954-10.961-10.96-.466 0-.843.377-.843.842 0 .466.377.844.843.844z" transform="translate(.5) translate(21 21)"/>
            <path d="M27.825 17.707c2.327.002 4.213 1.888 4.216 4.216 0 .465.377.843.843.843.466 0 .843-.378.843-.843-.004-3.259-2.644-5.899-5.902-5.903-.466 0-.843.378-.843.844 0 .465.377.843.843.843z" transform="translate(.5) translate(21 21)"/>
        </g>
    </g>
</svg>
