<svg xmlns="http://www.w3.org/2000/svg" width="90" height="91" viewBox="0 0 90 91">
    <g fill="none" fill-rule="evenodd">
        <path fill="#1877F2" d="M29.485 0h31.03c10.253 0 13.97 1.067 17.719 3.072 3.748 2.005 6.69 4.946 8.694 8.694C88.933 15.514 90 19.232 90 29.485v31.03c0 10.253-1.067 13.97-3.072 17.719-2.005 3.748-4.946 6.69-8.694 8.694C74.486 88.933 70.768 90 60.515 90h-31.03c-10.253 0-13.97-1.067-17.719-3.072-3.748-2.005-6.69-4.946-8.694-8.694C1.067 74.486 0 70.768 0 60.515v-31.03c0-10.253 1.067-13.97 3.072-17.719 2.005-3.748 4.946-6.69 8.694-8.694C15.514 1.067 19.232 0 29.485 0z" transform="translate(0 .956)"/>
        <path fill="#FFF" fill-rule="nonzero" d="M48.87 75V48.145h9.054l1.356-10.512H48.87V30.94c0-3.037.843-5.106 5.197-5.106h5.518v-9.376c-.96-.127-4.254-.413-8.086-.413-8.003 0-13.48 4.883-13.48 13.854v7.735H29v10.512h9.02V75h10.85z" transform="translate(0 .956)"/>
    </g>
</svg>
