<svg xmlns="http://www.w3.org/2000/svg" width="65" height="64" viewBox="0 0 65 64">
    <g fill="none" fill-rule="evenodd" transform="translate(.5)">
        <circle cx="32" cy="32" r="32" fill="#00E676"/>
        <path fill="#FFF" fill-rule="nonzero" d="M32.504 15h-.008C23.398 15 16 22.4 16 31.5c0 3.61 1.163 6.955 3.141 9.671l-2.056 6.13 6.342-2.028C26.037 47.002 29.148 48 32.504 48 41.602 48 49 40.598 49 31.5 49 22.402 41.602 15 32.504 15zm9.601 23.3c-.398 1.124-1.978 2.056-3.238 2.329-.862.183-1.988.33-5.78-1.242-4.848-2.009-7.97-6.936-8.214-7.256-.233-.32-1.96-2.609-1.96-4.977 0-2.367 1.203-3.52 1.688-4.015.398-.407 1.056-.592 1.687-.592.204 0 .387.01.552.018.485.02.729.05 1.048.815.398.959 1.368 3.327 1.483 3.57.118.244.235.573.07.893-.154.33-.29.477-.534.757-.243.28-.474.495-.718.796-.222.262-.474.543-.194 1.027.281.475 1.25 2.057 2.678 3.327 1.841 1.64 3.335 2.164 3.869 2.386.398.165.872.126 1.163-.183.37-.398.825-1.058 1.29-1.708.33-.466.746-.524 1.183-.359.446.155 2.803 1.32 3.288 1.562.484.243.804.358.922.563.115.204.115 1.163-.283 2.29z"/>
    </g>
</svg>
